<svg width="74" height="55" viewBox="0 0 74 55" fill="none" xmlns="http://www.w3.org/2000/svg">
<g clip-path="url(#clip0_22_3803)">
<path d="M51.3907 16.0004C53.587 16.0004 55.5637 16.4981 57.3208 17.4934C59.0988 18.4888 60.4899 19.8654 61.4939 21.6233C62.498 23.3599 63 25.3189 63 27.5003C63 29.6817 62.498 31.6514 61.4939 33.4092C60.4899 35.1459 59.0988 36.5119 57.3208 37.5073C55.5637 38.5027 53.587 39.0004 51.3907 39.0004C49.4244 39.0004 47.6255 38.6086 45.9939 37.825C44.3623 37.0202 43.0131 35.9083 41.9463 34.4893C40.9005 33.0492 40.2311 31.4078 39.9383 29.5653H37.0516V38H32V16H37.0516V25.1178H40.001C40.3357 23.3387 41.026 21.7609 42.0718 20.3843C43.1386 18.9865 44.4774 17.9064 46.088 17.144C47.6987 16.3816 49.4662 16.0004 51.3907 16.0004ZM51.3907 34.6164C52.6039 34.6164 53.7021 34.3199 54.6852 33.7269C55.6683 33.1339 56.4423 32.2973 57.0071 31.2172C57.5718 30.1371 57.8542 28.8981 57.8542 27.5003C57.8542 26.1026 57.5718 24.8636 57.0071 23.7835C56.4423 22.7034 55.6683 21.8668 54.6852 21.2738C53.7021 20.6808 52.6039 20.3843 51.3907 20.3843C50.1774 20.3843 49.0793 20.6808 48.0961 21.2738C47.113 21.8668 46.339 22.7034 45.7743 23.7835C45.2095 24.8636 44.9271 26.1026 44.9271 27.5003C44.9271 28.8981 45.2095 30.1371 45.7743 31.2172C46.339 32.2973 47.113 33.1339 48.0961 33.7269C49.0793 34.3199 50.1774 34.6164 51.3907 34.6164Z" fill="#CD4631"/>
<path d="M31 16V38H25.9669V32.1543H21.3113L17.4106 38H12.0315L16.6242 31.3686C15.1352 30.761 13.9923 29.8495 13.1954 28.6343C12.3985 27.3981 12 25.921 12 24.2029C12 22.5057 12.388 21.0495 13.1639 19.8343C13.9398 18.5981 15.0408 17.6552 16.4669 17.0057C17.8929 16.3352 19.5706 16 21.5 16H31ZM21.6258 20.1486C20.1788 20.1486 19.0673 20.4838 18.2914 21.1543C17.5364 21.8248 17.1589 22.82 17.1589 24.14C17.1589 25.4181 17.5259 26.4029 18.2599 27.0943C18.9939 27.7857 20.074 28.1314 21.5 28.1314H25.9669V20.1486H21.6258Z" fill="#CD4631"/>
<rect x="2.5" y="2.5" width="69" height="50" rx="3.5" stroke="#CD4631" stroke-width="5"/>
</g>
<defs>
<clipPath id="clip0_22_3803">
<rect width="74" height="55" fill="white"/>
</clipPath>
</defs>
</svg>
