<svg width="37" height="39" viewBox="0 0 37 39" fill="none" xmlns="http://www.w3.org/2000/svg">
<path d="M16.1392 17.959C15.8305 18.2617 15.51 18.5592 15.1763 18.8487C14.6363 19.317 14.0721 19.7571 13.4849 20.1709C13.4871 20.1723 13.4895 20.1734 13.4917 20.1748L13.8423 20.4014C14.5146 20.845 15.1373 21.3228 15.7105 21.8321C16.2681 20.845 16.8981 19.989 17.439 19.3106C16.9812 18.9027 16.5432 18.453 16.1392 17.959ZM36.6402 19.5469C36.5459 20.0882 35.7685 20.1475 35.0728 20.0801C33.8669 20.0082 32.7533 19.9359 31.5474 19.792C29.3213 19.5763 27.2803 20.0075 25.2398 20.583C24.3125 20.8708 23.3852 21.4465 22.9214 22.0938C21.9011 23.3168 20.8803 24.5404 20.4165 25.9073L20.2124 26.502C19.2104 29.4774 18.5039 32.5081 17.6343 35.4756C17.4488 36.123 17.4485 36.7703 17.0777 37.3457C16.8921 37.7054 16.2426 38.1377 15.8716 38.1377L15.7993 38.1319C15.4474 38.0792 14.9267 37.6712 14.8589 37.3428L14.8511 37.2744C14.76 36.4268 14.8469 35.5094 14.8501 34.6592L14.8511 34.6123C14.7583 33.4613 14.6655 32.3102 14.48 31.1592C14.0452 28.9336 12.877 27.0237 10.7456 25.5489L10.3062 25.2598C7.80166 23.6771 5.38965 22.0222 2.14309 21.5186C1.73742 21.4556 1.26072 21.2828 0.961451 21.0479L0.844263 20.9434C0.473228 20.5117 -0.0824766 19.9356 0.0102787 19.5039C0.103454 19.0724 0.844647 18.4969 1.49368 18.4248C10.0275 17.2018 14.0165 12.5975 16.3355 6.69827C16.7528 5.61925 17.0141 4.45942 17.2749 3.3096L17.5415 2.16605C17.7848 1.72554 17.7442 1.28495 17.9165 0.892609L18.0054 0.727569C18.2836 0.368011 18.8395 -0.0636716 19.2105 0.00784289C19.5814 0.00784289 20.0455 0.511427 20.3238 0.871124C20.5093 1.15889 20.4165 1.51923 20.4165 1.87894C20.3238 3.38955 20.231 4.82827 20.1382 6.3389C20.0455 7.99351 19.8599 9.64815 19.8599 11.3028C19.7671 14.0366 21.9941 15.6914 24.7769 16.7705C26.5392 17.4179 28.4873 17.7774 30.6206 17.5616C31.9191 17.4178 33.2177 17.7058 34.6089 17.8496C35.0727 17.9216 35.5367 17.9932 35.815 18.209C36.186 18.5687 36.6499 19.0729 36.6499 19.4326L36.6402 19.5469Z" fill="#3B3B3B"/>
</svg>
