<svg width="81" height="84" viewBox="0 0 81 84" fill="none" xmlns="http://www.w3.org/2000/svg">
<path d="M37.8936 24.8896C35.5277 28.9852 32.57 32.7923 28.7774 36.0703C24.8282 39.4836 20.1312 42.1858 14.5548 44.083C18.9884 46.0017 22.7136 48.5041 25.9757 50.5586H25.9747C31.3612 53.9266 34.9146 58.3627 36.8028 63.5478C37.6168 60.7001 38.4888 57.8346 39.4659 55.0654C40.9036 50.8954 43.8899 47.3988 45.9483 44.9433C47.0351 43.5063 48.4664 42.331 49.9815 41.416C44.1211 38.6519 37.6946 33.6955 37.8936 24.8954V24.8896ZM81 42.8007C81 44.2269 79.1547 44.386 77.5147 44.2275C74.8497 44.069 72.3896 43.9106 69.7246 43.5937C64.8045 43.1183 60.2943 44.0682 55.7842 45.3359C53.7342 45.9697 51.6843 47.2379 50.6592 48.664L49.8155 49.6748C47.8592 52.0361 46.0209 54.4282 45.1241 57.0625L44.6719 58.3711C42.4572 64.9248 40.8956 71.6004 38.9737 78.1367C38.5637 79.5628 38.5641 80.9892 37.7442 82.2568C37.3343 83.049 35.8993 83.9997 35.0792 84L34.918 83.9873C34.1125 83.8665 32.9078 82.9084 32.8282 82.1738L32.8233 82.0986C32.6183 80.1971 32.8233 78.1368 32.8233 76.2353C32.6183 73.7002 32.4139 71.165 32.004 68.6299C30.9789 63.4008 28.1085 58.9633 22.7784 55.6357C17.4163 52.2586 12.2464 48.7333 5.40538 47.5078L4.73838 47.3964C3.77736 47.2479 2.63597 46.8202 1.99034 46.2451L1.86827 46.1289C1.0484 45.1783 -0.181886 43.9106 0.0225699 42.9599C0.214741 42.0687 1.66811 40.8984 3.03135 40.625L3.30284 40.583C22.1634 37.8892 30.9784 27.7474 36.1036 14.7538C37.1799 11.9807 37.7859 8.96519 38.4698 6.02529L38.7686 4.77139C39.3452 3.73158 39.2012 2.6914 39.6876 1.78213L39.794 1.60146C40.4091 0.809241 41.6391 -0.14096 42.459 0.0174744C43.279 0.017526 44.304 1.12658 44.919 1.91884C45.329 2.55268 45.1241 3.34531 45.1241 4.1376C44.9191 7.46509 44.7138 10.6343 44.5088 13.9618C44.3038 17.6063 43.8936 21.251 43.8936 24.8954C43.6887 30.9166 48.6089 34.5616 54.7588 36.9384C58.6539 38.3645 62.9597 39.156 67.6748 38.6806C70.5448 38.3638 73.4152 38.9985 76.4902 39.3154C77.5151 39.4738 78.5403 39.6321 79.1553 40.1074C79.9752 40.8996 80.9998 42.0085 81 42.8007Z" fill="#CD4631"/>
</svg>
