<svg width="49" height="52" viewBox="0 0 49 52" fill="none" xmlns="http://www.w3.org/2000/svg">
<path d="M22.0987 19.1553C21.0167 20.6171 19.778 21.9995 18.3477 23.2646C16.4799 24.9166 14.357 26.3076 11.9541 27.418C13.6671 28.3737 15.1645 29.3847 16.4717 30.2275L16.877 30.4932C19.0221 31.9358 20.7027 33.6608 21.9424 35.6074C22.1448 34.9629 22.3534 34.3236 22.5703 33.6943C23.5358 30.8358 25.5336 28.4751 26.7471 26.9932C27.0736 26.5649 27.4361 26.1701 27.8262 25.8115C25.4466 24.3612 23.1251 22.2348 22.0987 19.1553ZM48.9873 26.6523C48.8611 27.3902 47.8217 27.4709 46.8916 27.3789C45.2794 27.2808 43.7909 27.1825 42.1787 26.9863C39.2025 26.6921 36.4743 27.2807 33.7461 28.0654C32.506 28.4578 31.2656 29.2422 30.6455 30.125C29.2814 31.7926 27.917 33.4604 27.2969 35.3242C25.8088 39.6401 24.8173 44.0542 23.5772 48.3701C23.3292 49.2529 23.329 50.1362 22.833 50.9209C22.585 51.4113 21.7168 51.9998 21.2207 52L21.1231 51.9922C20.6526 51.9199 19.957 51.3645 19.8662 50.917L19.8565 50.8232C19.7325 49.6461 19.8565 48.3705 19.8565 47.1934C19.7325 45.624 19.6084 44.0547 19.3604 42.4853C18.7597 39.3494 17.1112 36.6737 14.0772 34.6367L13.7793 34.4414C10.5355 32.3508 7.40817 30.1678 3.26958 29.4092L2.86626 29.3408C2.32378 29.255 1.68634 29.0187 1.28618 28.6982L1.12993 28.5557C0.63387 27.9671 -0.110287 27.1823 0.0137228 26.5937C0.130155 26.042 1.00936 25.3176 1.83403 25.1484L1.9981 25.123C13.4075 23.4555 18.7404 17.1773 21.8408 9.13377C22.3989 7.66245 22.7479 6.08055 23.0967 4.51267L23.4532 2.9531C23.8016 2.30961 23.7147 1.66621 24.0088 1.10349L24.0733 0.992164C24.4452 0.50185 25.1885 -0.0869223 25.6846 0.0107179C26.1805 0.0107179 26.8008 0.697042 27.1729 1.18748C27.4209 1.57985 27.2969 2.07104 27.2969 2.5615C27.1729 4.62121 27.0488 6.58285 26.9248 8.64256C26.8008 10.8986 26.5528 13.1551 26.5528 15.4111C26.4287 19.1386 29.4056 21.3948 33.126 22.8662C35.4823 23.749 38.0871 24.2396 40.9395 23.9453C42.6755 23.7492 44.4115 24.1417 46.2715 24.3379C46.8915 24.436 47.5117 24.5339 47.8838 24.8281C48.3799 25.3186 49 26.0056 49 26.4961L48.9873 26.6523Z" fill="#CD4631"/>
</svg>
