<svg width="131" height="137" viewBox="0 0 131 137" fill="none" xmlns="http://www.w3.org/2000/svg">
<path d="M64.668 27.2187C64.3538 31.4745 63.9935 36.1214 63.9893 40.5254C63.5839 55.1745 75.7799 62.7758 86.0195 66.7666L86.0781 66.7891L86.1367 66.8105C86.6716 67.008 87.2123 67.1984 87.7578 67.3828C83.7125 68.715 79.1852 71.3354 76.4219 75.0439C73.0047 79.1578 68.4868 84.5098 66.3555 90.7998C63.5872 98.7193 61.3692 107.017 59.2354 114.928C59.0742 113.569 58.8914 112.198 58.6709 110.823L58.6523 110.709L58.6299 110.596C56.6003 100.155 50.8134 91.2747 40.5908 84.8311H40.5918C33.2604 80.1747 24.9762 74.4758 14.4375 71.6055C26.9276 68.7153 36.8661 63.614 44.7959 56.7021C54.146 48.5523 60.2747 38.2625 64.668 27.2187Z" stroke="#81ADC8" stroke-width="14"/>
</svg>
