<svg width="131" height="137" viewBox="0 0 131 137" fill="none" xmlns="http://www.w3.org/2000/svg">
<path d="M58.8892 51.879C56.1202 55.4601 52.98 58.8531 49.3941 61.9786C44.7501 66.0265 39.5299 69.4802 33.6832 72.3019C37.69 74.5902 41.2278 76.9426 44.3443 78.922H44.3433C50.2648 82.658 54.9594 87.1619 58.4722 92.2794C58.8921 90.9884 59.3208 89.7072 59.7633 88.4425H59.7642C62.3656 80.8578 67.6817 74.6034 70.9156 70.7179C71.6073 69.8046 72.3632 68.9518 73.1646 68.1564C67.343 64.4781 61.7254 59.2436 58.8892 51.879ZM130.991 70.0187C130.813 72.1481 127.932 72.3833 125.363 72.1329C121.053 71.8745 117.074 71.6156 112.764 71.0988C104.807 70.3234 97.5125 71.874 90.2183 73.9415C86.9031 74.9752 83.5881 77.0426 81.9303 79.3683L80.566 81.0177C77.4022 84.8688 74.4286 88.7693 72.9781 93.0656L72.2467 95.2013C68.665 105.89 66.14 116.777 63.0318 127.438C62.3687 129.764 62.3678 132.09 61.0416 134.157C60.3784 135.449 58.0582 137 56.732 137L56.6051 136.995C55.2632 136.888 53.0846 135.15 53.0846 133.899C52.7602 130.864 53.0682 127.582 53.0816 124.536L53.0846 124.337C52.753 120.202 52.4215 116.067 51.7584 111.932C50.1524 103.67 45.7463 96.6206 37.6353 91.254L36.8385 90.7404C27.8864 85.0547 19.266 79.11 7.6617 77.3009C6.00401 77.0424 4.0147 76.2672 3.0201 75.2335C1.69389 73.6829 -0.294838 71.6151 0.0367 70.0646C0.368696 68.514 3.02075 66.447 5.34139 66.1886C35.8439 61.7952 50.1004 45.2552 58.3892 24.0636C60.3786 18.8949 61.3736 13.2085 62.6998 7.78137C63.6322 6.08535 63.3992 4.38942 64.1861 2.90638L64.358 2.61341C65.3526 1.32129 67.3413 -0.229795 68.6676 0.0284454C69.9938 0.0284454 71.6514 1.83783 72.6461 3.13001C73.3092 4.16376 72.9781 5.45599 72.9781 6.74817C72.6466 12.1751 72.3145 17.3437 71.983 22.7706C71.6514 28.7147 70.9888 34.6596 70.9888 40.6036C70.6575 50.424 78.6147 56.3678 88.5611 60.2443C94.8606 62.5702 101.823 63.8623 109.449 63.087C114.09 62.5702 118.732 63.6043 123.706 64.1212C125.363 64.3796 127.021 64.6381 128.015 65.4132C129.341 66.7054 131 68.5146 131 69.8068L130.991 70.0187Z" fill="#81ADC8"/>
</svg>
